#!OML:ASF E:\emotionWalksFemale\Project 1\Capture day 1\Session 1\Female1.ASF
:FULLY-SPECIFIED
:DEGREES
1091
root 7.923 15.591 -36.66 361.145 -51.8804 -354.488
lowerback 4.79412 2.03306 2.29792
upperback -4.9756 2.97807 1.25429
thorax -7.8602 1.35555 -0.30832
lowerneck -4.10542 13.0041 11.5626
upperneck 6.08647 17.6667 -11.6924
head 4.55562 8.59358 -4.18778
rclavicle -7.50412e-015 3.18055e-015
rhumerus -41.4297 9.77633 -64.6484
rradius 32.8717
rwrist 14.0672
rhand -0.858031 -59.3286
rfingers 7.12502
rthumb 24.7683 -87.7449
lclavicle -7.50412e-015 3.18055e-015
lhumerus -34.8552 10.5897 69.0332
lradius 47.7914
lwrist 1.73207
lhand -17.1176 -33.7349
lfingers 7.12502
lthumb 9.12189 -3.95216
rfemur -7.83088 5.85391 24.7582
rtibia 25.0779
rfoot -42.3585 -44.4007
rtoes 42.2001
lfemur -16.323 -10.3221 -20.36
ltibia 33.6007
lfoot -21.957 10.2648
ltoes -13.5916
1092
root 7.93224 15.589 -36.6995 361.383 -50.4941 -354.855
lowerback 4.97761 1.9539 2.20874
upperback -5.05322 2.87996 1.34908
thorax -8.0627 1.31242 -0.156327
lowerneck -3.99504 12.6844 11.4643
upperneck 6.08553 17.2373 -11.592
head 4.46995 8.38993 -4.20033
rclavicle -1.08835e-014 -1.11319e-014
rhumerus -40.869 9.25993 -64.1362
rradius 32.7661
rwrist 14.7909
rhand -0.697741 -59.143
rfingers 7.12502
rthumb 24.9219 -87.5381
lclavicle -1.08835e-014 -1.11319e-014
lhumerus -35.4467 10.9738 68.5336
lradius 47.9369
lwrist 2.71176
lhand -16.4366 -33.4286
lfingers 7.12502
lthumb 9.7789 -3.67564
rfemur -7.76263 5.44125 25.0457
rtibia 25.2727
rfoot -42.6262 -44.2336
rtoes 42.8494
lfemur -15.7772 -9.19196 -20.5225
ltibia 33.6852
lfoot -22.6185 11.9425
ltoes -13.5699
1093
root 7.94577 15.5872 -36.745 361.698 -48.9374 -355.145
lowerback 5.15117 1.82877 2.27204
upperback -5.10115 2.72057 1.26462
thorax -8.21151 1.226 -0.26874
lowerneck -4.43917 12.4012 11.4294
upperneck 6.30602 16.8049 -11.3538
head 4.5359 8.16775 -4.13807
rclavicle 9.79014e-015 -2.3059e-014
rhumerus -40.0361 8.08964 -63.6169
rradius 32.4317
rwrist 15.8515
rhand 0.0590648 -59.3912
rfingers 7.12502
rthumb 25.6469 -87.6838
lclavicle 9.79014e-015 -2.3059e-014
lhumerus -35.7951 11.1923 67.9045
lradius 48.0135
lwrist 3.37087
lhand -16.1834 -33.1611
lfingers 7.12502
lthumb 10.0233 -3.41973
rfemur -7.89137 4.91141 25.2761
rtibia 25.4916
rfoot -41.8368 -44.5277
rtoes 42.4752
lfemur -15.5222 -7.66022 -20.6248
ltibia 33.8163
lfoot -23.1539 12.449
ltoes -9.6258
1094
root 7.95812 15.5927 -36.7865 362.04 -47.3407 -355.332
lowerback 5.19506 1.77173 1.80797
upperback -5.17631 2.62229 1.48789
thorax -8.35176 1.2114 0.234419
lowerneck -4.8992 12.0924 11.1772
upperneck 6.51035 16.3751 -11.3323
head 4.60278 7.93319 -4.10969
rclavicle 6.2319e-014 6.36111e-015
rhumerus -39.313 7.25803 -62.7187
rradius 32.3573
rwrist 16.4719
rhand 0.13788 -59.9329
rfingers 7.12502
rthumb 25.7224 -88.2146
lclavicle 6.2319e-014 6.36111e-015
lhumerus -36.3969 11.7007 67.7594
lradius 47.8779
lwrist 3.32248
lhand -15.8181 -33.3723
lfingers 7.12502
lthumb 10.3757 -3.64829
rfemur -8.1873 4.34358 25.4547
rtibia 25.7087
rfoot -42.8129 -44.2819
rtoes 43.817
lfemur -15.3679 -6.59791 -20.7802
ltibia 33.9938
lfoot -23.6894 12.9219
ltoes -4.51591
1095
root 7.9669 15.5973 -36.8186 362.329 -45.8963 -355.438
lowerback 5.10082 1.74107 1.84747
upperback -5.30022 2.57113 1.29513
thorax -8.41968 1.17646 0.0169859
lowerneck -5.12525 11.7409 11.238
upperneck 6.64778 15.85 -11.0455
head 4.60313 7.68028 -4.07271
rclavicle -2.98177e-016 -8.74653e-015
rhumerus -38.9324 6.03237 -62.3749
rradius 32.4015
rwrist 17.1621
rhand -0.231205 -59.8447
rfingers 7.12502
rthumb 25.3689 -88.177
lclavicle -2.98177e-016 -8.74653e-015
lhumerus -36.8667 11.6726 67.1314
lradius 48.1637
lwrist 4.32113
lhand -13.9601 -31.2931
lfingers 7.12502
lthumb 12.1676 -1.66698
rfemur -8.46617 4.00386 25.5362
rtibia 25.9547
rfoot -43.4234 -44.2998
rtoes 44.4417
lfemur -15.1897 -5.23292 -21.007
ltibia 34.2454
lfoot -23.9604 13.8066
ltoes -5.38521
1096
root 7.97634 15.5951 -36.8497 362.608 -44.5342 -355.622
lowerback 5.05625 1.84852 1.75823
upperback -5.47445 2.69924 1.1462
thorax -8.57785 1.23704 -0.106812
lowerneck -5.13777 11.2345 11.4364
upperneck 6.85757 15.136 -10.8268
head 4.58682 7.34288 -4.10605
rclavicle 2.4699e-014 -5.56597e-015
rhumerus -38.9193 4.72203 -61.9346
rradius 32.5824
rwrist 17.5331
rhand -0.861591 -59.3621
rfingers 7.12502
rthumb 24.7649 -87.7788
lclavicle 2.4699e-014 -5.56597e-015
lhumerus -37.28 11.2314 66.7688
lradius 47.6428
lwrist 3.9474
lhand -16.8818 -33.7736
lfingers 7.12502
lthumb 9.34937 -4.00094
rfemur -8.62627 3.93575 25.658
rtibia 26.1535
rfoot -43.4161 -44.659
rtoes 44.3262
lfemur -14.9775 -3.70382 -21.1165
ltibia 34.5475
lfoot -23.9972 14.8152
ltoes -7.79652
1097
root 7.98816 15.592 -36.8793 362.833 -43.0862 -355.86
lowerback 5.0704 1.69776 1.70716
upperback -5.45448 2.49874 1.22094
thorax -8.57231 1.1455 0.0247793
lowerneck -5.47834 10.9759 11.0926
upperneck 6.94472 14.7632 -10.6109
head 4.58548 7.14861 -4.00965
rclavicle -7.64824e-014 -1.98785e-014
rhumerus -38.1734 3.97913 -61.5681
rradius 32.7587
rwrist 17.6363
rhand -1.44757 -59.3361
rfingers 7.12502
rthumb 24.2032 -87.8289
lclavicle -7.64824e-014 -1.98785e-014
lhumerus -37.7557 11.8231 66.3125
lradius 47.2132
lwrist 3.63441
lhand -16.8946 -33.9092
lfingers 7.12502
lthumb 9.33704 -4.13597
rfemur -8.66017 3.74173 25.8248
rtibia 26.2965
rfoot -43.4923 -44.8942
rtoes 44.2285
lfemur -14.696 -2.68566 -21.1568
ltibia 34.9098
lfoot -24.0211 15.8859
ltoes -8.27624
1098
root 8.00031 15.5909 -36.9032 362.848 -41.706 -355.906
lowerback 5.10681 1.5567 1.61199
upperback -5.42954 2.30353 1.23568
thorax -8.57245 1.0572 0.116618
lowerneck -5.64965 10.7095 10.6971
upperneck 6.91768 14.388 -10.3432
head 4.51547 6.96126 -3.90145
rclavicle -2.69353e-014 -2.14687e-014
rhumerus -37.4177 2.77279 -61.0543
rradius 32.8081
rwrist 18.1426
rhand -1.34257 -59.4344
rfingers 7.12502
rthumb 24.3038 -87.9137
lclavicle -2.69353e-014 -2.14687e-014
lhumerus -38.2588 12.3964 65.8429
lradius 46.8231
lwrist 3.60933
lhand -17.0765 -33.6263
lfingers 7.12502
lthumb 9.16156 -3.8453
rfemur -8.5393 3.39838 25.8261
rtibia 26.3799
rfoot -43.7767 -44.5817
rtoes 44.8342
lfemur -14.2932 -2.01837 -21.3508
ltibia 35.3215
lfoot -24.4183 16.8513
ltoes -6.54787
1099
root 8.01397 15.593 -36.9251 362.937 -40.3506 -355.917
lowerback 5.02257 1.58996 1.36627
upperback -5.41541 2.32285 1.20753
thorax -8.51548 1.08227 0.224376
lowerneck -5.97537 10.2926 10.5054
upperneck 7.00619 13.7966 -10.1735
head 4.50806 6.66279 -3.86253
rclavicle 4.70623e-014 3.73715e-014
rhumerus -36.9914 1.25069 -60.3897
rradius 32.9854
rwrist 18.3451
rhand -1.5445 -59.6502
rfingers 7.12502
rthumb 24.1102 -88.1553
lclavicle 4.70623e-014 3.73715e-014
lhumerus -38.46 12.5689 65.6107
lradius 46.2025
lwrist 3.54418
lhand -16.7215 -33.0571
lfingers 7.12502
lthumb 9.50403 -3.29144
rfemur -8.49716 3.11424 25.8058
rtibia 26.4014
rfoot -43.4968 -44.7262
rtoes 44.9749
lfemur -14.0289 -1.46568 -21.533
ltibia 35.7519
lfoot -25.0339 17.4547
ltoes -5.38959
1100
root 8.03157 15.5976 -36.9465 363.287 -38.8468 -356.082
lowerback 4.95583 1.37791 1.34775
upperback -5.54272 2.04524 1.32284
thorax -8.6207 0.950507 0.390887
lowerneck -6.0269 10.0003 9.96604
upperneck 7.06351 13.4277 -9.97059
head 4.44484 6.47492 -3.75407
rclavicle 6.37105e-014 -1.19271e-014
rhumerus -36.476 0.93339 -60.1329
rradius 33.3799
rwrist 17.5528
rhand -3.03096 -59.7032
rfingers 7.12502
rthumb 22.6843 -88.39
lclavicle 6.37105e-014 -1.19271e-014
lhumerus -39.1415 13.2894 65.1494
lradius 45.5834
lwrist 3.14329
lhand -16.7835 -33.0196
lfingers 7.12502
lthumb 9.44426 -3.25121
rfemur -8.63611 2.9982 25.9192
rtibia 26.3555
rfoot -42.7229 -45.6655
rtoes 44.1175
lfemur -14.0339 -1.09338 -21.5217
ltibia 36.1321
lfoot -25.3759 17.4829
ltoes -5.10241
